<svg class="animated" id="freepik_stories-autumn" xmlns="http://www.w3.org/2000/svg" xmlns:xlink="http://www.w3.org/1999/xlink" viewBox="0 0 500 500" version="1.1" xmlns:svgjs="http://svgjs.com/svgjs"><style>svg#freepik_stories-autumn:not(.animated) .animable {opacity: 0;}svg#freepik_stories-autumn.animated #elm8taias7bjg {animation: 0.7s 1 forwards cubic-bezier(.36,-0.01,.5,1.38) slideLeft;animation-delay: 0s;}svg#freepik_stories-autumn.animated #elkz85o9jj4z8 {animation: 0.7s 1 forwards cubic-bezier(.36,-0.01,.5,1.38) slideLeft;animation-delay: 0.02692307692307692s;opacity: 0}svg#freepik_stories-autumn.animated #eleo6axca5hnl {animation: 0.7s 1 forwards cubic-bezier(.36,-0.01,.5,1.38) slideLeft;animation-delay: 0.05384615384615384s;opacity: 0}svg#freepik_stories-autumn.animated #elk7ah6wev4r {animation: 0.7s 1 forwards cubic-bezier(.36,-0.01,.5,1.38) slideLeft;animation-delay: 0.08076923076923076s;opacity: 0}svg#freepik_stories-autumn.animated #elrdb4vteskfc {animation: 0.7s 1 forwards cubic-bezier(.36,-0.01,.5,1.38) slideLeft;animation-delay: 0.10769230769230768s;opacity: 0}svg#freepik_stories-autumn.animated #elg0qvw7nhgpr {animation: 0.7s 1 forwards cubic-bezier(.36,-0.01,.5,1.38) slideLeft;animation-delay: 0.1346153846153846s;opacity: 0}svg#freepik_stories-autumn.animated #elmr4q5tv3f4 {animation: 0.7s 1 forwards cubic-bezier(.36,-0.01,.5,1.38) slideLeft;animation-delay: 0.16153846153846152s;opacity: 0}svg#freepik_stories-autumn.animated #eliorbnno46pc {animation: 0.7s 1 forwards cubic-bezier(.36,-0.01,.5,1.38) slideLeft;animation-delay: 0.18846153846153846s;opacity: 0}svg#freepik_stories-autumn.animated #elj8o5ms4fk2 {animation: 0.7s 1 forwards cubic-bezier(.36,-0.01,.5,1.38) slideLeft;animation-delay: 0.21538461538461537s;opacity: 0}svg#freepik_stories-autumn.animated #elx98hepit4u {animation: 0.7s 1 forwards cubic-bezier(.36,-0.01,.5,1.38) slideLeft;animation-delay: 0.24230769230769228s;opacity: 0}svg#freepik_stories-autumn.animated #elb2k40mix3n5 {animation: 0.7s 1 forwards cubic-bezier(.36,-0.01,.5,1.38) slideLeft;animation-delay: 0.2692307692307692s;opacity: 0}svg#freepik_stories-autumn.animated #elh50wal3cgkg {animation: 0.7s 1 forwards cubic-bezier(.36,-0.01,.5,1.38) slideLeft;animation-delay: 0.29615384615384616s;opacity: 0}svg#freepik_stories-autumn.animated #elmijdaytapq9 {animation: 0.7s 1 forwards cubic-bezier(.36,-0.01,.5,1.38) slideLeft;animation-delay: 0.32307692307692304s;opacity: 0}svg#freepik_stories-autumn.animated #el1xbt3rj9ciqi {animation: 0.7s 1 forwards cubic-bezier(.36,-0.01,.5,1.38) slideLeft;animation-delay: 0.35s;opacity: 0}svg#freepik_stories-autumn.animated #ell8h63q3oal {animation: 0.7s 1 forwards cubic-bezier(.36,-0.01,.5,1.38) slideLeft;animation-delay: 0.3769230769230769s;opacity: 0}svg#freepik_stories-autumn.animated #elsi0s0zoey9t {animation: 0.7s 1 forwards cubic-bezier(.36,-0.01,.5,1.38) slideLeft;animation-delay: 0.4038461538461538s;opacity: 0}svg#freepik_stories-autumn.animated #el53c6op69695 {animation: 0.7s 1 forwards cubic-bezier(.36,-0.01,.5,1.38) slideLeft;animation-delay: 0.43076923076923074s;opacity: 0}svg#freepik_stories-autumn.animated #el4l0wdrxcv5j {animation: 0.7s 1 forwards cubic-bezier(.36,-0.01,.5,1.38) slideLeft;animation-delay: 0.4576923076923077s;opacity: 0}svg#freepik_stories-autumn.animated #elv16osh2vkkn {animation: 0.7s 1 forwards cubic-bezier(.36,-0.01,.5,1.38) slideLeft;animation-delay: 0.48461538461538456s;opacity: 0}svg#freepik_stories-autumn.animated #el2tqgw2cjek3 {animation: 0.7s 1 forwards cubic-bezier(.36,-0.01,.5,1.38) slideLeft;animation-delay: 0.5115384615384615s;opacity: 0}svg#freepik_stories-autumn.animated #el42l78lrb9wo {animation: 0.7s 1 forwards cubic-bezier(.36,-0.01,.5,1.38) slideLeft;animation-delay: 0.5384615384615384s;opacity: 0}svg#freepik_stories-autumn.animated #el1htsoli5gg7 {animation: 0.7s 1 forwards cubic-bezier(.36,-0.01,.5,1.38) slideLeft;animation-delay: 0.5653846153846154s;opacity: 0}svg#freepik_stories-autumn.animated #elcxifpnzmy4p {animation: 0.7s 1 forwards cubic-bezier(.36,-0.01,.5,1.38) slideLeft;animation-delay: 0.5923076923076923s;opacity: 0}svg#freepik_stories-autumn.animated #elryx0cvgwff {animation: 0.7s 1 forwards cubic-bezier(.36,-0.01,.5,1.38) slideLeft;animation-delay: 0.6192307692307691s;opacity: 0}svg#freepik_stories-autumn.animated #eli4pqyxrccbj {animation: 0.7s 1 forwards cubic-bezier(.36,-0.01,.5,1.38) slideLeft;animation-delay: 0.6461538461538461s;opacity: 0}svg#freepik_stories-autumn.animated #elw363v80l1h {animation: 0.7s 1 forwards cubic-bezier(.36,-0.01,.5,1.38) slideLeft;animation-delay: 0.673076923076923s;opacity: 0}svg#freepik_stories-autumn.animated #freepik--Plants--inject-1--inject-71 {animation: 0.7s 1 forwards cubic-bezier(.36,-0.01,.5,1.38) slideLeft,1.5s Infinite  linear floating;animation-delay: 0s,0.7s;}            @keyframes slideLeft {                0% {                    opacity: 0;                    transform: translateX(-30px);                }                100% {                    opacity: 1;                    transform: translateX(0);                }            }                    @keyframes floating {                0% {                    opacity: 1;                    transform: translateY(0px);                }                50% {                    transform: translateY(-10px);                }                100% {                    opacity: 1;                    transform: translateY(0px);                }            }        </style><g id="freepik--background-simple--inject-1--inject-71" class="animable" style="transform-origin: 257.555px 234.834px;"><path d="M292,89s-7.25-6.2-21.33-10.72v79.61l22.4-68A13.71,13.71,0,0,1,292,89Z" style="fill: rgb(146, 227, 169); transform-origin: 281.87px 118.085px;" id="ele9eql3cgnj" class="animable"></path><path d="M290,384.26c8.75,2.39,10.85,8.7,10.85,8.7s-3.5-13.31,1.41-11.21,9.1,11.21,9.1,11.21,0-37.13,9.11-23.12a41.05,41.05,0,0,1,6.11,14.26A101.14,101.14,0,0,0,334,367.83c5-14.6,8-62.59,8-102.24V90.22c-19.81,4.52-34.29,6-43.46,2.75L270.67,179v118.9c0,47.08,8.19,73.21,14.57,86.43C286,383.76,287.47,383.58,290,384.26Z" style="fill: rgb(146, 227, 169); transform-origin: 306.335px 241.59px;" id="elyf9hj16t788" class="animable"></path><path d="M93.57,367.35a88.78,88.78,0,0,1-5,10.92c.32,1.2.64,2.3,1,3.36L97,376.15S95.1,372,93.57,367.35Z" style="fill: rgb(146, 227, 169); transform-origin: 92.785px 374.49px;" id="el8qeei68jfol" class="animable"></path><path d="M383.55,89.84A71.58,71.58,0,0,0,361,87.49v57.7l.19-2.87Z" style="fill: rgb(146, 227, 169); transform-origin: 372.275px 116.285px;" id="elopu3z7mltgo" class="animable"></path><path d="M461,272c-3-31-33-49-41-80,0-.12-.05-.23-.08-.34V297.93a458.09,458.09,0,0,0,2.31,48.8C433.43,327,463.89,301.84,461,272Z" style="fill: rgb(146, 227, 169); transform-origin: 440.552px 269.195px;" id="eln36v0m32s" class="animable"></path><path d="M387,360c1.4,7-3.54,24.22-3.54,24.22s8.45-17.92,7.75-10.92-2.11,14-2.11,14,5.73-6.4,9.24-8.68c1.16-3.4,2.26-7.09,3.14-10.84,3.42-14.6,5.48-62.59,5.48-102.24V103.86a49.18,49.18,0,0,0-21.55-13.49l-24.37,72V297.93c0,40.57,5.61,65.17,11.16,79.58C377.74,368.22,386,355.43,387,360Z" style="fill: rgb(146, 227, 169); transform-origin: 384px 238.835px;" id="elo1w483djggq" class="animable"></path><path d="M419.92,127.4v36.75C422.37,154.18,425.68,145.19,419.92,127.4Z" style="fill: rgb(146, 227, 169); transform-origin: 421.518px 145.775px;" id="el2iaeeh004gm" class="animable"></path><path d="M251.67,74.29A112.06,112.06,0,0,0,233,73.88L251.67,104Z" style="fill: rgb(146, 227, 169); transform-origin: 242.335px 88.8342px;" id="eljg8llhpinv" class="animable"></path><path d="M67.68,265.59V235.73c-6.89,9-12.9,20-13.68,35.27-.86,16.76,5.12,29.81,12.84,40.61C67.39,296.57,67.68,280.49,67.68,265.59Z" style="fill: rgb(146, 227, 169); transform-origin: 60.7988px 273.67px;" id="ele4s83pvdh1s" class="animable"></path><path d="M429.43,383.87C432.42,393,435,396,435,396h5A95.53,95.53,0,0,1,429.43,383.87Z" style="fill: rgb(146, 227, 169); transform-origin: 434.715px 389.935px;" id="eled9m7lke9eh" class="animable"></path><path d="M95,346a17.86,17.86,0,0,1,1.5,8.1c6.77,2.51,6.77,16.44,6.77,16.44s9.11-26.62,11.21-20.31,0,18.21,0,18.21,9.8-14.71,10.5-9.1,1.41,10.5,1.41,10.5,2.1-13.31,6.3-9.8a10.91,10.91,0,0,1,1.83,2c4.08-19,6.48-61.05,6.48-96.48V177l-35.26-46.66C81.74,151,88.1,178.16,90,199c.72,7.95-3.52,14.46-9.32,21.38v77.55c0,11.59.31,21.86.85,31C87.35,335.17,92.5,340.68,95,346Z" style="fill: rgb(146, 227, 169); transform-origin: 110.84px 250.44px;" id="elr938u8mqh9" class="animable"></path><path d="M141,117.25c-8-.88-17.1,0-29.95,9l30,39.28Z" style="fill: rgb(146, 227, 169); transform-origin: 126.05px 141.256px;" id="elvfn48wuspnr" class="animable"></path><path d="M174.72,383.15s-4.2-20.31,3.5-18.91S186.63,379,186.63,379s11.2-15.41,9.8-9.11a50,50,0,0,1-3.5,10.51s13.31-26.62,14-16.81c.54,7.61-3.55,14.37-5.41,17,1.67-2.07,5.34-5.82,8.07-2.81,3.64,4,5.75,11,5.75,11s-.7-16.82,4.2-13.31,4.9,12.6,4.9,12.6,7.45-13.33,10.38-8.06c.82,1.48,1.41,2.53,1.84,3.29a99.05,99.05,0,0,0,7-15.45c5-14.6,8-62.59,8-102.24V116L229.09,74.17c-24.68,2.48-33.51,16-42.29,27.63L160,151.51V297.93c0,45.5,7.64,71.43,13.92,85.05Z" style="fill: rgb(146, 227, 169); transform-origin: 205.83px 231.475px;" id="elnog06nfjsp" class="animable"></path><path d="M170,117a29.46,29.46,0,0,1-10,2.43V137.1L172.09,116C171.42,116.35,170.72,116.69,170,117Z" style="fill: rgb(146, 227, 169); transform-origin: 166.045px 126.55px;" id="el6koaf99177t" class="animable"></path><g id="elwgq8u8ebso"><g style="opacity: 0.7; transform-origin: 257.555px 234.834px;" class="animable"><path d="M292,89s-7.25-6.2-21.33-10.72v79.61l22.4-68A13.71,13.71,0,0,1,292,89Z" style="fill: rgb(255, 255, 255); transform-origin: 281.87px 118.085px;" id="elukk34p3xxpm" class="animable"></path><path d="M290,384.26c8.75,2.39,10.85,8.7,10.85,8.7s-3.5-13.31,1.41-11.21,9.1,11.21,9.1,11.21,0-37.13,9.11-23.12a41.05,41.05,0,0,1,6.11,14.26A101.14,101.14,0,0,0,334,367.83c5-14.6,8-62.59,8-102.24V90.22c-19.81,4.52-34.29,6-43.46,2.75L270.67,179v118.9c0,47.08,8.19,73.21,14.57,86.43C286,383.76,287.47,383.58,290,384.26Z" style="fill: rgb(255, 255, 255); transform-origin: 306.335px 241.59px;" id="el6ob32t5um19" class="animable"></path><path d="M93.57,367.35a88.78,88.78,0,0,1-5,10.92c.32,1.2.64,2.3,1,3.36L97,376.15S95.1,372,93.57,367.35Z" style="fill: rgb(255, 255, 255); transform-origin: 92.785px 374.49px;" id="el2f1gt6f12tv" class="animable"></path><path d="M383.55,89.84A71.58,71.58,0,0,0,361,87.49v57.7l.19-2.87Z" style="fill: rgb(255, 255, 255); transform-origin: 372.275px 116.285px;" id="elsp7m2ar7i4" class="animable"></path><path d="M461,272c-3-31-33-49-41-80,0-.12-.05-.23-.08-.34V297.93a458.09,458.09,0,0,0,2.31,48.8C433.43,327,463.89,301.84,461,272Z" style="fill: rgb(255, 255, 255); transform-origin: 440.552px 269.195px;" id="elfmcyk1ltrke" class="animable"></path><path d="M387,360c1.4,7-3.54,24.22-3.54,24.22s8.45-17.92,7.75-10.92-2.11,14-2.11,14,5.73-6.4,9.24-8.68c1.16-3.4,2.26-7.09,3.14-10.84,3.42-14.6,5.48-62.59,5.48-102.24V103.86a49.18,49.18,0,0,0-21.55-13.49l-24.37,72V297.93c0,40.57,5.61,65.17,11.16,79.58C377.74,368.22,386,355.43,387,360Z" style="fill: rgb(255, 255, 255); transform-origin: 384px 238.835px;" id="elv1at37mtdd" class="animable"></path><path d="M419.92,127.4v36.75C422.37,154.18,425.68,145.19,419.92,127.4Z" style="fill: rgb(255, 255, 255); transform-origin: 421.518px 145.775px;" id="el1k7cwe9a0u2" class="animable"></path><path d="M251.67,74.29A112.06,112.06,0,0,0,233,73.88L251.67,104Z" style="fill: rgb(255, 255, 255); transform-origin: 242.335px 88.8342px;" id="elqrxa2tldzj" class="animable"></path><path d="M67.68,265.59V235.73c-6.89,9-12.9,20-13.68,35.27-.86,16.76,5.12,29.81,12.84,40.61C67.39,296.57,67.68,280.49,67.68,265.59Z" style="fill: rgb(255, 255, 255); transform-origin: 60.7988px 273.67px;" id="eloy6dhsee8z" class="animable"></path><path d="M429.43,383.87C432.42,393,435,396,435,396h5A95.53,95.53,0,0,1,429.43,383.87Z" style="fill: rgb(255, 255, 255); transform-origin: 434.715px 389.935px;" id="elnfadshbhalc" class="animable"></path><path d="M95,346a17.86,17.86,0,0,1,1.5,8.1c6.77,2.51,6.77,16.44,6.77,16.44s9.11-26.62,11.21-20.31,0,18.21,0,18.21,9.8-14.71,10.5-9.1,1.41,10.5,1.41,10.5,2.1-13.31,6.3-9.8a10.91,10.91,0,0,1,1.83,2c4.08-19,6.48-61.05,6.48-96.48V177l-35.26-46.66C81.74,151,88.1,178.16,90,199c.72,7.95-3.52,14.46-9.32,21.38v77.55c0,11.59.31,21.86.85,31C87.35,335.17,92.5,340.68,95,346Z" style="fill: rgb(255, 255, 255); transform-origin: 110.84px 250.44px;" id="el55gqjf5ajqd" class="animable"></path><path d="M141,117.25c-8-.88-17.1,0-29.95,9l30,39.28Z" style="fill: rgb(255, 255, 255); transform-origin: 126.05px 141.256px;" id="eldezd5tx8i6m" class="animable"></path><path d="M174.72,383.15s-4.2-20.31,3.5-18.91S186.63,379,186.63,379s11.2-15.41,9.8-9.11a50,50,0,0,1-3.5,10.51s13.31-26.62,14-16.81c.54,7.61-3.55,14.37-5.41,17,1.67-2.07,5.34-5.82,8.07-2.81,3.64,4,5.75,11,5.75,11s-.7-16.82,4.2-13.31,4.9,12.6,4.9,12.6,7.45-13.33,10.38-8.06c.82,1.48,1.41,2.53,1.84,3.29a99.05,99.05,0,0,0,7-15.45c5-14.6,8-62.59,8-102.24V116L229.09,74.17c-24.68,2.48-33.51,16-42.29,27.63L160,151.51V297.93c0,45.5,7.64,71.43,13.92,85.05Z" style="fill: rgb(255, 255, 255); transform-origin: 205.83px 231.475px;" id="eljkxq7q1l9rf" class="animable"></path><path d="M170,117a29.46,29.46,0,0,1-10,2.43V137.1L172.09,116C171.42,116.35,170.72,116.69,170,117Z" style="fill: rgb(255, 255, 255); transform-origin: 166.045px 126.55px;" id="elqd0zi99tu0i" class="animable"></path></g></g></g><g id="freepik--Plants--inject-1--inject-71" class="animable" style="transform-origin: 257.842px 224.429px;"><path d="M94.34,190.64s-3.13-2.43.69-7.63,10.76-6.95,10.07-2.78S101.63,192.73,94.34,190.64Z" style="fill: rgb(146, 227, 169); transform-origin: 99.1403px 184.438px;" id="elm8taias7bjg" class="animable"></path><path d="M99.2,184.05a133,133,0,0,0-9.38,13.19" style="fill: rgb(146, 227, 169); stroke: rgb(38, 50, 56); stroke-linecap: round; stroke-linejoin: round; transform-origin: 94.51px 190.645px;" id="elkz85o9jj4z8" class="animable"></path><path d="M373.2,256.56s-1.41-3.7,4.56-6.16,12.81-.33,10.05,2.86S378.34,262.13,373.2,256.56Z" style="fill: rgb(146, 227, 169); transform-origin: 380.748px 254.118px;" id="eleo6axca5hnl" class="animable"></path><path d="M380.78,253.45a134.94,134.94,0,0,0-14.87,6.39" style="fill: rgb(146, 227, 169); stroke: rgb(38, 50, 56); stroke-linecap: round; stroke-linejoin: round; transform-origin: 373.345px 256.645px;" id="elk7ah6wev4r" class="animable"></path><path d="M437.72,349.56s-4-.1-4-6.56,4.52-12,6.44-8.21S444.82,346.9,437.72,349.56Z" style="fill: rgb(146, 227, 169); transform-origin: 438.022px 341.556px;" id="elrdb4vteskfc" class="animable"></path><path d="M437.71,341.37a134.59,134.59,0,0,0,.3,16.17" style="fill: rgb(146, 227, 169); stroke: rgb(38, 50, 56); stroke-linecap: round; stroke-linejoin: round; transform-origin: 437.802px 349.455px;" id="elg0qvw7nhgpr" class="animable"></path><path d="M189.52,282s3.29-2.21,7,3.05,3.22,12.39-.52,10.43S185.26,288.21,189.52,282Z" style="fill: rgb(146, 227, 169); transform-origin: 193.628px 288.676px;" id="elmr4q5tv3f4" class="animable"></path><path d="M194.26,288.63a134.3,134.3,0,0,0-9.58-13" style="fill: rgb(146, 227, 169); stroke: rgb(38, 50, 56); stroke-linecap: round; stroke-linejoin: round; transform-origin: 189.47px 282.13px;" id="eliorbnno46pc" class="animable"></path><path d="M63.8,162.7A32.61,32.61,0,0,1,68,154.2c2.78-3.91,10.9-1.54,10.9-1.54,2.22.15,1.43,12.48-5.7,14.38-3,.81,1.23,1.79,4,1.23s8.93,1.12,6.7,4.47S75.51,180,72.16,180A18.34,18.34,0,0,1,61,176.64C57.1,173.85,53.76,166,53.76,161S58.78,152.1,63.8,162.7Z" style="fill: rgb(146, 227, 169); transform-origin: 69.0685px 165.979px;" id="elj8o5ms4fk2" class="animable"></path><path d="M69,164.26S58.93,177.11,57.19,183" style="fill: rgb(146, 227, 169); stroke: rgb(38, 50, 56); stroke-linecap: round; stroke-linejoin: round; transform-origin: 63.095px 173.63px;" id="elx98hepit4u" class="animable"></path><path d="M338.05,165.33a32.85,32.85,0,0,1-4.13-8.51c-1.35-4.61,5.52-9.53,5.52-9.53,1.48-1.66,10.71,6.57,7.81,13.35-1.25,2.9,2.17.14,3.45-2.4s6.38-6.34,7.64-2.52.54,11.06-1.52,13.7a18.32,18.32,0,0,1-9.52,6.71c-4.6,1.35-12.81-.83-16.76-3.93S326.61,162.75,338.05,165.33Z" style="fill: rgb(146, 227, 169); transform-origin: 343.564px 161.806px;" id="elb2k40mix3n5" class="animable"></path><path d="M342.49,162.21s3.9,15.84,7.47,20.85" style="fill: none; stroke: rgb(38, 50, 56); stroke-linecap: round; stroke-linejoin: round; transform-origin: 346.225px 172.635px;" id="elh50wal3cgkg" class="animable"></path><path d="M442.72,286.67a32.65,32.65,0,0,1-4.13-8.52c-1.35-4.6,5.51-9.53,5.51-9.53,1.49-1.65,10.71,6.57,7.81,13.36-1.24,2.9,2.17.13,3.45-2.41s6.39-6.33,7.65-2.51.54,11.05-1.52,13.69a18.4,18.4,0,0,1-9.52,6.71c-4.6,1.36-12.81-.83-16.76-3.92S431.28,284.08,442.72,286.67Z" style="fill: rgb(146, 227, 169); transform-origin: 448.234px 283.139px;" id="elmijdaytapq9" class="animable"></path><path d="M447.16,283.54s3.9,15.85,7.47,20.85" style="fill: rgb(146, 227, 169); stroke: rgb(38, 50, 56); stroke-linecap: round; stroke-linejoin: round; transform-origin: 450.895px 293.965px;" id="el1xbt3rj9ciqi" class="animable"></path><path d="M201.63,101.54a32.68,32.68,0,0,1,9,2.79c4.29,2.14,3.22,10.52,3.22,10.52.19,2.22-12.11,3.36-15.1-3.39-1.27-2.88-1.58,1.5-.59,4.17s.28,9-3.37,7.31-8.46-7.14-9-10.45A18.34,18.34,0,0,1,187.42,101c2.15-4.29,9.34-8.81,14.3-9.59S211.32,94.93,201.63,101.54Z" style="fill: rgb(146, 227, 169); transform-origin: 199.729px 107.271px;" id="ell8h63q3oal" class="animable"></path><path d="M200.89,106.92s-14.25-8-20.35-8.75" style="fill: rgb(146, 227, 169); stroke: rgb(38, 50, 56); stroke-linecap: round; stroke-linejoin: round; transform-origin: 190.715px 102.545px;" id="elsi0s0zoey9t" class="animable"></path><path d="M138.89,327.73a22.06,22.06,0,0,1,6.14,1.89c2.92,1.46,2.19,7.15,2.19,7.15.13,1.51-8.23,2.28-10.26-2.3-.87-2-1.07,1-.4,2.83s.19,6.11-2.29,5-5.75-4.85-6.1-7.09a12.4,12.4,0,0,1,1.06-7.84c1.46-2.92,6.35-6,9.72-6.52S145.47,323.24,138.89,327.73Z" style="fill: rgb(146, 227, 169); transform-origin: 137.624px 331.636px;" id="el53c6op69695" class="animable"></path><path d="M138.39,331.38s-9.69-5.4-13.83-5.94" style="fill: rgb(146, 227, 169); stroke: rgb(38, 50, 56); stroke-linecap: round; stroke-linejoin: round; transform-origin: 131.475px 328.41px;" id="el4l0wdrxcv5j" class="animable"></path><path d="M62.69,267.46A22.29,22.29,0,0,1,68,263.79c3-1.39,7,2.7,7,2.7,1.27.82-3.28,7.88-8.14,6.65-2.08-.53.14,1.47,2,2.06s4.93,3.62,2.49,4.87-7.36,1.53-9.35.42a12.48,12.48,0,0,1-5.51-5.68c-1.39-2.94-.79-8.69.87-11.67S63.22,259.51,62.69,267.46Z" style="fill: rgb(146, 227, 169); transform-origin: 65.466px 271.133px;" id="elv16osh2vkkn" class="animable"></path><path d="M65.26,270.11S55,274.4,52.05,277.33" style="fill: rgb(146, 227, 169); stroke: rgb(38, 50, 56); stroke-linecap: round; stroke-linejoin: round; transform-origin: 58.655px 273.72px;" id="el2tqgw2cjek3" class="animable"></path><path d="M436.89,158.39a22.28,22.28,0,0,1,6.14,1.9c2.92,1.46,2.19,7.15,2.19,7.15.13,1.51-8.23,2.28-10.26-2.3-.87-2-1.07,1-.4,2.83s.19,6.11-2.29,5-5.75-4.85-6.1-7.1a12.42,12.42,0,0,1,1.06-7.84c1.46-2.91,6.35-6,9.72-6.51S443.47,153.9,436.89,158.39Z" style="fill: rgb(146, 227, 169); transform-origin: 435.624px 162.306px;" id="el42l78lrb9wo" class="animable"></path><path d="M436.39,162.05s-9.69-5.4-13.83-5.94" style="fill: rgb(146, 227, 169); stroke: rgb(38, 50, 56); stroke-linecap: round; stroke-linejoin: round; transform-origin: 429.475px 159.08px;" id="el1htsoli5gg7" class="animable"></path><path d="M84.13,142.43s6.47-2.59,18.12,0,22.65,11,40.13,13.6,28.48-3.24,30.42-12.95-7.12-11-13-6.47,0,12.3,0,12.3" style="fill: none; stroke: rgb(38, 50, 56); stroke-linecap: round; stroke-linejoin: round; stroke-width: 0.75px; stroke-dasharray: 2; transform-origin: 128.599px 145.375px;" id="elcxifpnzmy4p" class="animable"></path><path d="M139.14,162.5s8.42,3.23,22.66,0,15.53-19.42,26.53-27.83,20.07.64,20.07,8.41-5.83,9.06-11.65,9.06" style="fill: none; stroke: rgb(38, 50, 56); stroke-linecap: round; stroke-linejoin: round; stroke-width: 0.75px; stroke-dasharray: 2; transform-origin: 173.77px 147.618px;" id="elryx0cvgwff" class="animable"></path><path d="M301.72,312.67s8.41-3.88,19.42,6.47,23.95,22,41.42,20.71S387.16,323,402,319.79s22,5.82,22,11.65-9.71,13.59-14.89,7.77" style="fill: none; stroke: rgb(38, 50, 56); stroke-linecap: round; stroke-linejoin: round; stroke-width: 0.75px; stroke-dasharray: 2; transform-origin: 362.86px 326.614px;" id="eli4pqyxrccbj" class="animable"></path><path d="M281,325.61s21.36-6.47,32.36,2.59,20.71,22.66,36.89,22.66" style="fill: none; stroke: rgb(38, 50, 56); stroke-linecap: round; stroke-linejoin: round; stroke-width: 0.75px; stroke-dasharray: 2; transform-origin: 315.625px 337.116px;" id="elw363v80l1h" class="animable"></path></g><g id="freepik--Shadow--inject-1--inject-71" class="animable" style="transform-origin: 249.91px 421.91px;"><ellipse cx="249.91" cy="421.91" rx="34.88" ry="4.81" style="fill: rgb(146, 227, 169); transform-origin: 249.91px 421.91px;" id="elfcdt8qf04z9" class="animable"></ellipse></g><g id="freepik--Character--inject-1--inject-71" class="animable" style="transform-origin: 264.444px 277.155px;"><path d="M235.9,290.09s3.24,19.47,1.21,31.24-4.46,14.6-6.89,22.3-2.43,17.44-2.43,17.44l7.76.82s10.08-23.12,10.89-42.19-2.84-30.42-2.84-30.42Z" style="fill: rgb(255, 255, 255); transform-origin: 237.174px 325.585px;" id="el1vyunjzn952" class="animable"></path><g style="clip-path: url(&quot;#freepik--clip-path--inject-1--inject-71&quot;); transform-origin: 237.174px 325.585px;" id="elhg6h1tej7dq" class="animable"><g id="elr3e03c3ho8"><path d="M235.9,290.09s3.24,19.47,1.21,31.24-4.46,14.6-6.89,22.3-2.43,17.44-2.43,17.44l7.76.82s10.08-23.12,10.89-42.19-2.84-30.42-2.84-30.42Z" style="fill: rgb(146, 227, 169); stroke: rgb(38, 50, 56); stroke-miterlimit: 10; opacity: 0.5; transform-origin: 237.174px 325.585px;" class="animable"></path></g></g><path d="M235.9,290.09s3.24,19.47,1.21,31.24-4.46,14.6-6.89,22.3-2.43,17.44-2.43,17.44l7.76.82s10.08-23.12,10.89-42.19-2.84-30.42-2.84-30.42Z" style="fill: none; stroke: rgb(38, 50, 56); stroke-miterlimit: 10; transform-origin: 237.174px 325.585px;" id="elnkgmfwnchxn" class="animable"></path><path d="M228.82,417.9s-2,1,1.4,2a13.17,13.17,0,0,0,6.92-.24s.73-.35-.26-1.46S228.82,417.9,228.82,417.9Z" style="fill: rgb(38, 50, 56); stroke: rgb(38, 50, 56); stroke-miterlimit: 10; transform-origin: 232.817px 418.933px;" id="elpn626nr7dci" class="animable"></path><path d="M225.22,359.35s1.72-2.8,14.78-1.09c7.83,1,8.93.19,9.53,3.91s-5.91,38.6-6,41a9.92,9.92,0,0,0,2.32,6.17c1,1.1,8.38,5.68,11.27,5.83s3.84,2,3.77,3.35-4.2,2.51-10,2.22-13.16-2.35-15-2.44-4.53,1.08-7.08-.36.38-7.61,1.06-10.46-2.76-23.28-4.37-33.09S224.85,361.44,225.22,359.35Z" style="fill: rgb(146, 227, 169); stroke: rgb(38, 50, 56); stroke-miterlimit: 10; transform-origin: 242.745px 389.246px;" id="eldlum470etg" class="animable"></path><g id="elgrbkm9idji"><path d="M225.22,359.35s1.72-2.8,14.78-1.09c7.83,1,8.93.19,9.53,3.91s-5.91,38.6-6,41a9.92,9.92,0,0,0,2.32,6.17c1,1.1,8.38,5.68,11.27,5.83s3.84,2,3.77,3.35-4.2,2.51-10,2.22-13.16-2.35-15-2.44-4.53,1.08-7.08-.36.38-7.61,1.06-10.46-2.76-23.28-4.37-33.09S224.85,361.44,225.22,359.35Z" style="opacity: 0.1; transform-origin: 242.745px 389.246px;" class="animable"></path></g><path d="M225.22,359.35s1.72-2.8,14.78-1.09c7.83,1,8.93.19,9.53,3.91s-5.91,38.6-6,41a9.92,9.92,0,0,0,2.32,6.17c1,1.1,8.38,5.68,11.27,5.83s3.84,2,3.77,3.35-4.2,2.51-10,2.22-13.16-2.35-15-2.44-4.53,1.08-7.08-.36.38-7.61,1.06-10.46-2.76-23.28-4.37-33.09S224.85,361.44,225.22,359.35Z" style="fill: none; stroke: rgb(38, 50, 56); stroke-miterlimit: 10; transform-origin: 242.745px 389.246px;" id="el0mdi4djjv52p" class="animable"></path><path d="M231.56,288.74a55.68,55.68,0,0,1,5.72,18.76c1.08,10.34,1.9,19.58-1.09,26.11s-4.63,16.05-4.08,20.13a73.46,73.46,0,0,0,1.63,8.15L250.33,363s2.72-19.31,7.62-30.46,6.79-30.46,6.79-38.34a86.06,86.06,0,0,0-.54-11.43l-34.27,1.91Z" style="fill: rgb(255, 255, 255); transform-origin: 247.343px 322.885px;" id="el8v0bd3fiwn9" class="animable"></path><g style="clip-path: url(&quot;#freepik--clip-path-2--inject-1--inject-71&quot;); transform-origin: 247.328px 322.13px;" id="elk3folwbve8l" class="animable"><g id="elmcekghej9lb"><path d="M229.93,284.66l1.63,4.08a55.68,55.68,0,0,1,5.72,18.76c1.08,10.34,1.9,19.58-1.09,26.11s-4.63,16.05-4.08,20.13a73,73,0,0,0,1.53,7.77l3.11,0a29.55,29.55,0,0,1-1.07-12.08c.8-6.71,4.83-13.68,5.9-27.37a57.84,57.84,0,0,0-4.29-25.5A147.1,147.1,0,0,0,255,297.94a32.47,32.47,0,0,0,9.71-1.65c0-.77,0-1.48,0-2.11a86.06,86.06,0,0,0-.54-11.43Z" style="fill: rgb(146, 227, 169); opacity: 0.5; mix-blend-mode: multiply; transform-origin: 247.328px 322.13px;" class="animable"></path></g></g><path d="M231.56,288.74a55.68,55.68,0,0,1,5.72,18.76c1.08,10.34,1.9,19.58-1.09,26.11s-4.63,16.05-4.08,20.13a73.46,73.46,0,0,0,1.63,8.15L250.33,363s2.72-19.31,7.62-30.46,6.79-30.46,6.79-38.34a86.06,86.06,0,0,0-.54-11.43l-34.27,1.91Z" style="fill: none; stroke: rgb(38, 50, 56); stroke-miterlimit: 10; transform-origin: 247.343px 322.885px;" id="ellh1ywi1ddl" class="animable"></path><path d="M249.33,292.46s1.26,10.69,1.26,19.91a64.65,64.65,0,0,1-1.89,15.92" style="fill: none; stroke: rgb(38, 50, 56); stroke-linecap: round; stroke-linejoin: round; transform-origin: 249.646px 310.375px;" id="elsq6e1lpjw2e" class="animable"></path><path d="M247.65,331.65s-4,9.22-4.61,13.62" style="fill: none; stroke: rgb(38, 50, 56); stroke-linecap: round; stroke-linejoin: round; transform-origin: 245.345px 338.46px;" id="elcca8miw7m4p" class="animable"></path><path d="M253.45,141.05s4.62-2.87,1.26-6.23-15.39-5.32-27.15,3.64-6.44,16.79-5.32,21.55.28,6.16-8.11,13.71-4.2,18.48,1.68,24.63S236,207.87,244.07,207s12.32,3.64,15.4,7,9.51,3.07,13.15,2.51S281,216,288.29,221s16,2,21.84-3.92,1.11-15.39,5-15.95,4.76-.28,4.2-3.64a5.21,5.21,0,0,0-7.84-3.64c-3.63,2-10.07,6.44-13.71,2.52s2-12.31-7.28-19-14,0-22.11,0-13.15-2.8-14.27-7.83,1.4-10.36,2.24-15.68S253.45,141.05,253.45,141.05Z" style="fill: rgb(38, 50, 56); stroke: rgb(38, 50, 56); stroke-miterlimit: 10; transform-origin: 264.444px 177.763px;" id="elxhyuhmjae" class="animable"></path><path d="M253.45,141.05s-5.3-3.17-10.16,4.25.57,13.14-7.14,22.85-24.56,9.71-23.14,19.71,8.29,7.43,8.29,7.43" style="fill: none; stroke: rgb(255, 255, 255); stroke-linecap: round; stroke-linejoin: round; stroke-width: 0.75px; transform-origin: 233.188px 167.982px;" id="elcrsxvw57xs" class="animable"></path><path d="M241.58,139.88s-7.43,4-7.43,10.85,3.71,9.42-.29,14.57S227.3,171,227.3,171" style="fill: none; stroke: rgb(255, 255, 255); stroke-linecap: round; stroke-linejoin: round; stroke-width: 0.75px; transform-origin: 234.44px 155.44px;" id="elljtivgv5e6" class="animable"></path><path d="M226.44,181s-8.57,6.29-6.86,10.29,5.14,1.42,5.14,1.42" style="fill: none; stroke: rgb(255, 255, 255); stroke-linecap: round; stroke-linejoin: round; stroke-width: 0.75px; transform-origin: 222.897px 187.264px;" id="elmkwwxr7804o" class="animable"></path><path d="M281.85,180.15s9.42-.29,10.28,8-.86,14,4.57,14.86,10.57-5.72,14.28-5.72" style="fill: none; stroke: rgb(255, 255, 255); stroke-linecap: round; stroke-linejoin: round; stroke-width: 0.75px; transform-origin: 296.415px 191.618px;" id="ela99rv2plhdi" class="animable"></path><path d="M289.85,203.28s.85,2.86,5.42,4,6.57-3.71,10.57-4.85" style="fill: none; stroke: rgb(255, 255, 255); stroke-linecap: round; stroke-linejoin: round; stroke-width: 0.75px; transform-origin: 297.845px 204.941px;" id="eljcc84w42mck" class="animable"></path><path d="M253.45,141.05a37.74,37.74,0,0,1,6.24,4.35c1.9,1.89,2.65,4.54,4,5.48s5.48,1.52,5.48,2.27-1.7,3-1.7,3,1.7,6.62,2.27,8.51.95,4-.76,4.92a16.26,16.26,0,0,1-7.94,2.08l-4.16.19v8.32c0,3.78,1.7,11.54,1.7,11.54L247,185.88s.57-6.62.57-9.27a73.46,73.46,0,0,0-.76-7.76s-6.05-.75-5.48-4.92c.49-3.64,4-2.46,5.1-2.46h1.14s-.38-3.4.57-5.1,4.54-3.22,5.1-6.81A44.46,44.46,0,0,0,253.45,141.05Z" style="fill: rgb(255, 255, 255); transform-origin: 255.757px 166.38px;" id="elwbz2fxlfkm" class="animable"></path><g style="clip-path: url(&quot;#freepik--clip-path-3--inject-1--inject-71&quot;); transform-origin: 255.116px 166.55px;" id="elmfr1awv6x7e" class="animable"><g id="elt8unq3mru3"><path d="M251.51,167.25c-4-4-2.15-7.52-.27-10.74a16.78,16.78,0,0,0,2-6.95c-.56,3.59-4.16,5.1-5.1,6.81s-.57,5.1-.57,5.1h-1.14c-1.13,0-4.61-1.18-5.1,2.46-.57,4.17,5.48,4.92,5.48,4.92a73.46,73.46,0,0,1,.76,7.76c0,1.63-.22,4.76-.38,6.93,2.57-1.36,6.14-3.28,9.65-5.28v-6.38l4.16-.19a16.26,16.26,0,0,0,7.94-2.08C268.7,166.87,255.54,171.27,251.51,167.25Z" style="fill: rgb(146, 227, 169); opacity: 0.5; mix-blend-mode: multiply; transform-origin: 255.116px 166.55px;" class="animable"></path></g></g><path d="M253.45,141.05a37.74,37.74,0,0,1,6.24,4.35c1.9,1.89,2.65,4.54,4,5.48s5.48,1.52,5.48,2.27-1.7,3-1.7,3,1.7,6.62,2.27,8.51.95,4-.76,4.92a16.26,16.26,0,0,1-7.94,2.08l-4.16.19v8.32c0,3.78,1.7,11.54,1.7,11.54L247,185.88s.57-6.62.57-9.27a73.46,73.46,0,0,0-.76-7.76s-6.05-.75-5.48-4.92c.49-3.64,4-2.46,5.1-2.46h1.14s-.38-3.4.57-5.1,4.54-3.22,5.1-6.81A44.46,44.46,0,0,0,253.45,141.05Z" style="fill: none; stroke: rgb(38, 50, 56); stroke-miterlimit: 10; transform-origin: 255.757px 166.38px;" id="el8ilmg9qukuj" class="animable"></path><path d="M258.94,150.13,261,152.4s-.95,1.51-2.27,1.51" style="fill: none; stroke: rgb(38, 50, 56); stroke-linecap: round; stroke-linejoin: round; stroke-width: 0.75px; transform-origin: 259.865px 152.02px;" id="ele78w0t9egbd" class="animable"></path><path d="M258.18,147.48a1.84,1.84,0,0,0-2.65,1.32" style="fill: none; stroke: rgb(38, 50, 56); stroke-linecap: round; stroke-linejoin: round; stroke-width: 0.75px; transform-origin: 256.855px 148.039px;" id="elsira5ltc0yr" class="animable"></path><path d="M266.88,160.53a4.38,4.38,0,0,1-4,.94" style="fill: none; stroke: rgb(38, 50, 56); stroke-linecap: round; stroke-linejoin: round; stroke-width: 0.75px; transform-origin: 264.88px 161.072px;" id="elus62xlgvpsm" class="animable"></path><path d="M237,420.09s-2,1.17,1.56,2a13.59,13.59,0,0,0,7.15-.62s.74-.4-.35-1.48S237,420.09,237,420.09Z" style="fill: rgb(38, 50, 56); stroke: rgb(38, 50, 56); stroke-miterlimit: 10; transform-origin: 241.198px 420.923px;" id="el1h3s1n2mfy8" class="animable"></path><path d="M230.21,359.72s1.63-3,15.23-1.9c8.15.65,9.24-.28,10.06,3.53s-4.08,40.25-4.08,42.7a10.23,10.23,0,0,0,2.72,6.25c1.09,1.09,9,5.44,12,5.44s4.08,1.91,4.08,3.27-4.21,2.82-10.2,2.82-13.73-1.74-15.63-1.74-4.63,1.36-7.35,0,0-7.88.55-10.87-4.08-23.94-6.26-34S229.93,361.89,230.21,359.72Z" style="fill: rgb(146, 227, 169); stroke: rgb(38, 50, 56); stroke-miterlimit: 10; transform-origin: 250.031px 389.704px;" id="elf8lt25vgrnf" class="animable"></path><g id="elw71rim3ml2b"><path d="M230.21,359.72s1.63-3,15.23-1.9c8.15.65,9.24-.28,10.06,3.53s-4.08,40.25-4.08,42.7a10.23,10.23,0,0,0,2.72,6.25c1.09,1.09,9,5.44,12,5.44s4.08,1.91,4.08,3.27-4.21,2.82-10.2,2.82-13.73-1.74-15.63-1.74-4.63,1.36-7.35,0,0-7.88.55-10.87-4.08-23.94-6.26-34S229.93,361.89,230.21,359.72Z" style="opacity: 0.1; transform-origin: 250.031px 389.704px;" class="animable"></path></g><path d="M230.21,359.72s1.63-3,15.23-1.9c8.15.65,9.24-.28,10.06,3.53s-4.08,40.25-4.08,42.7a10.23,10.23,0,0,0,2.72,6.25c1.09,1.09,9,5.44,12,5.44s4.08,1.91,4.08,3.27-4.21,2.82-10.2,2.82-13.73-1.74-15.63-1.74-4.63,1.36-7.35,0,0-7.88.55-10.87-4.08-23.94-6.26-34S229.93,361.89,230.21,359.72Z" style="fill: none; stroke: rgb(38, 50, 56); stroke-miterlimit: 10; transform-origin: 250.031px 389.704px;" id="elbx6eihps51d" class="animable"></path><path d="M264.8,203.47s4.35,10.4,4.16,13.81-6,15.89-6,17.4,14.57,51.07,14.57,51.07-16.46,5.3-31.4,5.86a76.26,76.26,0,0,1-27.81-4.54L230,230.9l-.95-26.49s4.73-15.89,13-17S263.1,200.44,264.8,203.47Z" style="fill: rgb(146, 227, 169); stroke: rgb(38, 50, 56); stroke-miterlimit: 10; transform-origin: 247.925px 239.49px;" id="el5nacvbt9s3o" class="animable"></path><g id="el1fngskrm1cd"><path d="M264.8,203.47s4.35,10.4,4.16,13.81-6,15.89-6,17.4,14.57,51.07,14.57,51.07-16.46,5.3-31.4,5.86a76.26,76.26,0,0,1-27.81-4.54L230,230.9l-.95-26.49s4.73-15.89,13-17S263.1,200.44,264.8,203.47Z" style="fill: rgb(38, 50, 56); opacity: 0.1; transform-origin: 247.925px 239.49px;" class="animable"></path></g><path d="M261.93,195.5s.86,1.71,5.13.28,4.71-3,8.13-2.13,4.56,2,7.26,1.85,3.14-.86,3.14-.86,1.14-.57.71.43-2.42,1.43-5,1.43-5-1.71-7.69-1.86-4,1.86-6.84,2.57a19.35,19.35,0,0,1-3.85.71Z" style="fill: rgb(146, 227, 169); stroke: rgb(38, 50, 56); stroke-miterlimit: 10; stroke-width: 0.5px; transform-origin: 274.163px 195.66px;" id="elx5k4m7k5der" class="animable"></path><g id="elfvssxgxlu1"><path d="M261.93,195.5s.86,1.71,5.13.28,4.71-3,8.13-2.13,4.56,2,7.26,1.85,3.14-.86,3.14-.86,1.14-.57.71.43-2.42,1.43-5,1.43-5-1.71-7.69-1.86-4,1.86-6.84,2.57a19.35,19.35,0,0,1-3.85.71Z" style="opacity: 0.1; transform-origin: 274.163px 195.66px;" class="animable"></path></g><path d="M261.93,195.5s.86,1.71,5.13.28,4.71-3,8.13-2.13,4.56,2,7.26,1.85,3.14-.86,3.14-.86,1.14-.57.71.43-2.42,1.43-5,1.43-5-1.71-7.69-1.86-4,1.86-6.84,2.57a19.35,19.35,0,0,1-3.85.71Z" style="fill: none; stroke: rgb(38, 50, 56); stroke-miterlimit: 10; stroke-width: 0.5px; transform-origin: 274.163px 195.66px;" id="elzrsavf3m5i" class="animable"></path><path d="M263.79,202.34s.57,1,4.27,3.56,8.27-.28,11.4.29a1.39,1.39,0,0,0-1.42-1.57c-1.57,0-2.71,2-7.27.71S263.93,199.35,263.79,202.34Z" style="fill: rgb(146, 227, 169); stroke: rgb(38, 50, 56); stroke-miterlimit: 10; stroke-width: 0.5px; transform-origin: 271.631px 204.174px;" id="elzzclc66b6tk" class="animable"></path><g id="ela6o411ys5nv"><path d="M263.79,202.34s.57,1,4.27,3.56,8.27-.28,11.4.29a1.39,1.39,0,0,0-1.42-1.57c-1.57,0-2.71,2-7.27.71S263.93,199.35,263.79,202.34Z" style="opacity: 0.1; transform-origin: 271.631px 204.174px;" class="animable"></path></g><path d="M263.79,202.34s.57,1,4.27,3.56,8.27-.28,11.4.29a1.39,1.39,0,0,0-1.42-1.57c-1.57,0-2.71,2-7.27.71S263.93,199.35,263.79,202.34Z" style="fill: none; stroke: rgb(38, 50, 56); stroke-miterlimit: 10; stroke-width: 0.5px; transform-origin: 271.631px 204.174px;" id="elqcjkx93p3dp" class="animable"></path><path d="M281.88,205a1.5,1.5,0,1,0-1.49,1.5A1.49,1.49,0,0,0,281.88,205Z" style="fill: rgb(146, 227, 169); stroke: rgb(38, 50, 56); stroke-miterlimit: 10; stroke-width: 0.5px; transform-origin: 280.38px 205px;" id="el111gc0qd19i" class="animable"></path><g id="elxra89w2up2j"><path d="M281.88,205a1.5,1.5,0,1,0-1.49,1.5A1.49,1.49,0,0,0,281.88,205Z" style="opacity: 0.1; transform-origin: 280.38px 205px;" class="animable"></path></g><path d="M281.88,205a1.5,1.5,0,1,0-1.49,1.5A1.49,1.49,0,0,0,281.88,205Z" style="fill: none; stroke: rgb(38, 50, 56); stroke-miterlimit: 10; stroke-width: 0.5px; transform-origin: 280.38px 205px;" id="eluds1g08qbb" class="animable"></path><path d="M288.3,194.71a1.5,1.5,0,1,0-1.5,1.5A1.5,1.5,0,0,0,288.3,194.71Z" style="fill: rgb(146, 227, 169); stroke: rgb(38, 50, 56); stroke-miterlimit: 10; stroke-width: 0.5px; transform-origin: 286.8px 194.71px;" id="el1wt27g4p6k1" class="animable"></path><g id="ely18fzogixcl"><path d="M288.3,194.71a1.5,1.5,0,1,0-1.5,1.5A1.5,1.5,0,0,0,288.3,194.71Z" style="opacity: 0.1; transform-origin: 286.8px 194.71px;" class="animable"></path></g><path d="M288.3,194.71a1.5,1.5,0,1,0-1.5,1.5A1.5,1.5,0,0,0,288.3,194.71Z" style="fill: none; stroke: rgb(38, 50, 56); stroke-miterlimit: 10; stroke-width: 0.5px; transform-origin: 286.8px 194.71px;" id="elk10b09w08kl" class="animable"></path><path d="M264.8,201.77a16.35,16.35,0,0,0-4.54-9.46c-4.16-4.16-10.4-7.19-14.75-9.65s-8.7-2.46-11.73-.57-7.94,11.16-11.73,14.76-4.92,5.67-1.51,8.13,5.67,2.27,9.84-.76,6.62-13.05,11-13.8,11.53,1.89,15.51,5.29,7.56,8.51,7.94,7.76A2.34,2.34,0,0,0,264.8,201.77Z" style="fill: rgb(146, 227, 169); stroke: rgb(38, 50, 56); stroke-miterlimit: 10; transform-origin: 241.74px 193.705px;" id="elrd5cyw7wmt" class="animable"></path><g id="elqsp7iovb31q"><path d="M264.8,201.77a16.35,16.35,0,0,0-4.54-9.46c-4.16-4.16-10.4-7.19-14.75-9.65s-8.7-2.46-11.73-.57-7.94,11.16-11.73,14.76-4.92,5.67-1.51,8.13,5.67,2.27,9.84-.76,6.62-13.05,11-13.8,11.53,1.89,15.51,5.29,7.56,8.51,7.94,7.76A2.34,2.34,0,0,0,264.8,201.77Z" style="opacity: 0.1; transform-origin: 241.74px 193.705px;" class="animable"></path></g><path d="M264.8,201.77a16.35,16.35,0,0,0-4.54-9.46c-4.16-4.16-10.4-7.19-14.75-9.65s-8.7-2.46-11.73-.57-7.94,11.16-11.73,14.76-4.92,5.67-1.51,8.13,5.67,2.27,9.84-.76,6.62-13.05,11-13.8,11.53,1.89,15.51,5.29,7.56,8.51,7.94,7.76A2.34,2.34,0,0,0,264.8,201.77Z" style="fill: none; stroke: rgb(38, 50, 56); stroke-miterlimit: 10; transform-origin: 241.74px 193.705px;" id="elozim7krbe1" class="animable"></path><path d="M243.24,196.66s-3.6-1.89-7.57,1.32-17,22.7-20.62,27.43-5.29,6.43-4.16,9.65,18.35,21.37,19.49,23.07a26,26,0,0,0,2.83,3.41l4.73.19,4.92-4.73A104.94,104.94,0,0,0,237,245.08c-3.6-6.24-7.38-12.1-7.38-12.1s17.59-19.87,18.91-24.59a15,15,0,0,0-.37-8.89" style="fill: rgb(146, 227, 169); stroke: rgb(38, 50, 56); stroke-miterlimit: 10; transform-origin: 229.786px 228.919px;" id="el11l0cd688qzq" class="animable"></path><g id="elpwg7su3by7e"><path d="M243.24,196.66s-3.6-1.89-7.57,1.32-17,22.7-20.62,27.43-5.29,6.43-4.16,9.65,18.35,21.37,19.49,23.07a26,26,0,0,0,2.83,3.41l4.73.19,4.92-4.73A104.94,104.94,0,0,0,237,245.08c-3.6-6.24-7.38-12.1-7.38-12.1s17.59-19.87,18.91-24.59a15,15,0,0,0-.37-8.89" style="opacity: 0.1; transform-origin: 229.786px 228.919px;" class="animable"></path></g><path d="M243.24,196.66s-3.6-1.89-7.57,1.32-17,22.7-20.62,27.43-5.29,6.43-4.16,9.65,18.35,21.37,19.49,23.07a26,26,0,0,0,2.83,3.41l4.73.19,4.92-4.73A104.94,104.94,0,0,0,237,245.08c-3.6-6.24-7.38-12.1-7.38-12.1s17.59-19.87,18.91-24.59a15,15,0,0,0-.37-8.89" style="fill: none; stroke: rgb(38, 50, 56); stroke-miterlimit: 10; transform-origin: 229.786px 228.919px;" id="ela6g3u8axj8f" class="animable"></path><path d="M242.86,257l4.16,4.92s-6.24.38-9.08-.19Z" style="fill: rgb(255, 255, 255); stroke: rgb(38, 50, 56); stroke-miterlimit: 10; transform-origin: 242.48px 259.522px;" id="elte93pcsfngd" class="animable"></path><path d="M249.48,261.73h5.11s2.46,12.67,1.7,18.16" style="fill: none; stroke: rgb(38, 50, 56); stroke-linecap: round; stroke-linejoin: round; transform-origin: 252.958px 270.81px;" id="elc8utkmyyhl" class="animable"></path><path d="M231.19,274.21c0,.92-.06,1.81-.06,2.65" style="fill: none; stroke: rgb(38, 50, 56); stroke-linecap: round; stroke-linejoin: round; transform-origin: 231.16px 275.535px;" id="elhncypxruhml" class="animable"></path><path d="M232.27,262.3s-.65,4.53-1,9.64" style="fill: none; stroke: rgb(38, 50, 56); stroke-linecap: round; stroke-linejoin: round; transform-origin: 231.77px 267.12px;" id="eli56faxescad" class="animable"></path><path d="M238.2,231.94a13.71,13.71,0,0,0,9.23,3.36" style="fill: none; stroke: rgb(38, 50, 56); stroke-linecap: round; stroke-linejoin: round; transform-origin: 242.815px 233.621px;" id="elq332cbcezhj" class="animable"></path><path d="M242.39,237.54a15.65,15.65,0,0,0,8.68-.56" style="fill: none; stroke: rgb(38, 50, 56); stroke-linecap: round; stroke-linejoin: round; transform-origin: 246.73px 237.444px;" id="el78gz5awoe" class="animable"></path><path d="M251.35,209.55s.56,4.2-6.16,5" style="fill: none; stroke: rgb(38, 50, 56); stroke-linecap: round; stroke-linejoin: round; transform-origin: 248.276px 212.05px;" id="elf0e9acztdli" class="animable"></path><path d="M244.35,216s3.64,1.68,5.88.84" style="fill: none; stroke: rgb(38, 50, 56); stroke-linecap: round; stroke-linejoin: round; transform-origin: 247.29px 216.538px;" id="elhn7cxatfzh" class="animable"></path><path d="M219.25,283s12.28,4.16,24.56,4.55" style="fill: none; stroke: rgb(38, 50, 56); stroke-linecap: round; stroke-linejoin: round; transform-origin: 231.53px 285.275px;" id="elho7vnudqqvm" class="animable"></path><path d="M248.56,287.52s7.33-.39,11.69-1.18" style="fill: none; stroke: rgb(38, 50, 56); stroke-linecap: round; stroke-linejoin: round; transform-origin: 254.405px 286.93px;" id="eljawr2rkogs" class="animable"></path><path d="M264.61,285.15a61.09,61.09,0,0,0,10.69-2.38" style="fill: none; stroke: rgb(38, 50, 56); stroke-linecap: round; stroke-linejoin: round; transform-origin: 269.955px 283.96px;" id="elo1846t0edwj" class="animable"></path><path d="M229.62,233a7.54,7.54,0,0,0-4-4.48" style="fill: none; stroke: rgb(38, 50, 56); stroke-linecap: round; stroke-linejoin: round; transform-origin: 227.62px 230.76px;" id="ely9fnyuv9xnd" class="animable"></path><path d="M241.35,190.42s-6.78.48-9.18,3.09-6.61,7-6.61,7" style="fill: none; stroke: rgb(38, 50, 56); stroke-linecap: round; stroke-linejoin: round; transform-origin: 233.455px 195.465px;" id="el7tyc0yb91cb" class="animable"></path></g><defs>     <filter id="active" height="200%">         <feMorphology in="SourceAlpha" result="DILATED" operator="dilate" radius="2"></feMorphology>                <feFlood flood-color="#32DFEC" flood-opacity="1" result="PINK"></feFlood>        <feComposite in="PINK" in2="DILATED" operator="in" result="OUTLINE"></feComposite>        <feMerge>            <feMergeNode in="OUTLINE"></feMergeNode>            <feMergeNode in="SourceGraphic"></feMergeNode>        </feMerge>    </filter>    <filter id="hover" height="200%">        <feMorphology in="SourceAlpha" result="DILATED" operator="dilate" radius="2"></feMorphology>                <feFlood flood-color="#ff0000" flood-opacity="0.5" result="PINK"></feFlood>        <feComposite in="PINK" in2="DILATED" operator="in" result="OUTLINE"></feComposite>        <feMerge>            <feMergeNode in="OUTLINE"></feMergeNode>            <feMergeNode in="SourceGraphic"></feMergeNode>        </feMerge>            <feColorMatrix type="matrix" values="0   0   0   0   0                0   1   0   0   0                0   0   0   0   0                0   0   0   1   0 "></feColorMatrix>    </filter></defs><defs><clipPath id="freepik--clip-path--inject-1--inject-71"><path d="M235.9,290.09s3.24,19.47,1.21,31.24-4.46,14.6-6.89,22.3-2.43,17.44-2.43,17.44l7.76.82s10.08-23.12,10.89-42.19-2.84-30.42-2.84-30.42Z" style="fill:#fff;stroke:#263238;stroke-miterlimit:10"></path></clipPath><clipPath id="freepik--clip-path-2--inject-1--inject-71"><path d="M231.56,288.74a55.68,55.68,0,0,1,5.72,18.76c1.08,10.34,1.9,19.58-1.09,26.11s-4.63,16.05-4.08,20.13a73.46,73.46,0,0,0,1.63,8.15L250.33,363s2.72-19.31,7.62-30.46,6.79-30.46,6.79-38.34a86.06,86.06,0,0,0-.54-11.43l-34.27,1.91Z" style="fill:#fff;stroke:#263238;stroke-miterlimit:10"></path></clipPath><clipPath id="freepik--clip-path-3--inject-1--inject-71"><path d="M253.45,141.05a37.74,37.74,0,0,1,6.24,4.35c1.9,1.89,2.65,4.54,4,5.48s5.48,1.52,5.48,2.27-1.7,3-1.7,3,1.7,6.62,2.27,8.51.95,4-.76,4.92a16.26,16.26,0,0,1-7.94,2.08l-4.16.19v8.32c0,3.78,1.7,11.54,1.7,11.54L247,185.88s.57-6.62.57-9.27a73.46,73.46,0,0,0-.76-7.76s-6.05-.75-5.48-4.92c.49-3.64,4-2.46,5.1-2.46h1.14s-.38-3.4.57-5.1,4.54-3.22,5.1-6.81A44.46,44.46,0,0,0,253.45,141.05Z" style="fill:#fff;stroke:#263238;stroke-miterlimit:10"></path></clipPath></defs></svg>